<svg fill="none" height="40" viewBox="0 0 136 40" width="136" xmlns="http://www.w3.org/2000/svg"><clipPath id="logo_snow_with_text_40h__a"><path d="M0 0h136v40H0z"></path></clipPath><clipPath id="logo_snow_with_text_40h__b"><path d="M25.36-6h104.08v45.94H25.36z"></path></clipPath><g clip-path="url(#logo_snow_with_text_40h__a)"><path clip-rule="evenodd" d="M67 20.5c0 3.34-2.43 5.5-5.88 5.5-3.45 0-5.88-2.16-5.88-5.5s2.43-5.5 5.88-5.5c3.45 0 5.88 2.16 5.88 5.5zm-9.22 0c0 2.07 1.35 3.5 3.34 3.5s3.34-1.43 3.34-3.5-1.35-3.45-3.34-3.45-3.34 1.38-3.34 3.45zm-17.03-.21c.95-.44 1.56-1.18 1.56-2.33 0-1.73-1.59-2.96-3.87-2.96h-5.26v11h5.5c2.36 0 4.01-1.29 4.01-3.05a2.76 2.76 0 00-1.94-2.66zm-5.14-3.28h2.83c.85 0 1.44.5 1.44 1.2s-.6 1.2-1.44 1.2h-2.83zM38.67 24h-3.06v-2.68h3.06c.96 0 1.59.55 1.59 1.35s-.63 1.33-1.59 1.33zM51.84 26h3.19l-5.05-5.71L54.6 15h-2.9l-3.68 4.27h-.6V15H45v11h2.44v-4.38h.59zm24.63-11v4.34h-4.93V15H69.1v11h2.43v-4.44h4.93V26h2.43V15zM86.9 26h-2.44v-8.78h-3.8V15H90.7v2.22h-3.8zm9.7-11c-2.14 0-4.02.89-4.57 2.8l2.24.37a2.38 2.38 0 012.2-1.25c1.33 0 2.12.9 2.22 2.33h-2.37c-3.23 0-4.84 1.42-4.84 3.45 0 2.05 1.59 3.3 3.83 3.3 1.8 0 3-.82 3.53-1.73l.5 1.73h1.8v-6.18c0-3.19-1.73-4.82-4.54-4.82zm-.72 9.16c-1.18 0-1.95-.61-1.95-1.56 0-.85.62-1.44 2.48-1.44h2.3c0 1.8-1.14 3-2.83 3zM113.73 26h-3.2l-3.8-4.38h-.6V26h-2.42V15h2.43v4.27h.59l3.68-4.27h2.9l-4.63 5.29zm4.27 0h2.44v-8.78h3.8V15H114.2v2.22h3.8zm12.3-11c3.33 0 5.7 2.2 5.7 5.37 0 .3-.02.55-.04.79h-8.84c.23 1.69 1.46 2.83 3.32 2.83 1.29 0 2.3-.55 2.83-1.33l2.29.38c-.83 2.1-2.98 2.96-5.27 2.96-3.34 0-5.71-2.18-5.71-5.5s2.37-5.5 5.71-5.5zm3.06 4.25a3.06 3.06 0 00-3.07-2.25 3 3 0 00-3.02 2.25z" fill="currentColor" fill-rule="evenodd"></path><path d="M11.5 32h1c5.44 0 8.15 0 9.83-1.68C24 28.64 24 25.92 24 20.5v-1c0-5.42 0-8.13-1.67-9.82C20.65 8 17.93 8 12.5 8h-1C6.07 8 3.36 8 1.68 9.68 0 11.36 0 14.08 0 19.5v1c0 5.42 0 8.13 1.68 9.82C3.36 32 6.08 32 11.51 32z" fill="#07f"></path><path d="M12.77 25.29c-5.47 0-8.59-3.75-8.72-9.99h2.74c.09 4.58 2.11 6.52 3.71 6.92V15.3h2.58v3.95c1.58-.17 3.24-1.97 3.8-3.95h2.58a7.62 7.62 0 01-3.51 4.98 7.9 7.9 0 014.11 5.01h-2.84a4.94 4.94 0 00-4.14-3.57v3.57z" fill="#fff"></path><g clip-path="url(#logo_snow_with_text_40h__b)" fill="#07f"><path d="M76.75 7.49a2.14 2.14 0 10-2.14-2.13c0 1.17.95 2.13 2.13 2.13z"></path><path d="M43.41 34.33a2.14 2.14 0 10-2.13-2.14c0 1.18.95 2.14 2.13 2.14z" opacity=".5"></path><path d="M90.14 33.63a1.44 1.44 0 100-2.87 1.44 1.44 0 000 2.87zM73.18 37.5a1.44 1.44 0 100-2.87 1.44 1.44 0 000 2.87z"></path><path d="M26.8 4.52a1.44 1.44 0 100-2.87 1.44 1.44 0 000 2.87zm100.8 27.94a1.84 1.84 0 100-3.68 1.84 1.84 0 000 3.68z" opacity=".5"></path><path d="M49.87 6.61a.76.76 0 00-1.07-.03.76.76 0 00-.13.15l-.37-.1 1.03-.97a.24.24 0 00-.1-.41l-1.35-.41.3-.28a.76.76 0 10.37-1.42.76.76 0 00-.76.61.75.75 0 00.05.46l-.3.28-.32-1.38a.24.24 0 00-.16-.17.24.24 0 00-.24.05l-1.03.96-.11-.48A.76.76 0 0045 2.12a.73.73 0 00-.25.16.76.76 0 00.47 1.31l.1.48-1.34-.4a.24.24 0 00-.3.28l.31 1.37-.47-.13a.75.75 0 00-.74-.75.74.74 0 00-.55.2.76.76 0 00.5 1.31h.02a.75.75 0 00.61-.3l.49.14-1.03.96a.24.24 0 00.1.41l1.34.4-.36.35a.74.74 0 00-.33-.1.73.73 0 00-.55.22.76.76 0 00-.24.53.76.76 0 00.73.78h.03c.19 0 .38-.08.52-.2a.74.74 0 00.17-.88l.36-.34.33 1.37a.24.24 0 00.23.2.24.24 0 00.17-.08l1.03-.96.08.38a.76.76 0 00.34 1.42h.04a.76.76 0 00.11-1.5l-.1-.42 1.36.4a.23.23 0 00.17 0 .24.24 0 00.13-.28l-.32-1.38.4.12a.76.76 0 00.44.62c.1.05.2.07.3.07h.02a.76.76 0 00.55-1.28zm-2.1-.15l-1.22-.36.93-.87 1.21.36zm.57-2.77a.28.28 0 01.35-.02.28.28 0 01-.27.48.28.28 0 01-.14-.37.28.28 0 01.07-.09zm-1.49-.05l.3 1.23-.93.87-.3-1.23zm-1.77-1a.28.28 0 01.38.4.28.28 0 11-.38-.4zm.37 1.98l.3 1.23-1.22-.36-.3-1.24zm-2.5.78a.28.28 0 11-.38-.4.28.28 0 01.37.4zm1.44.55l1.21.37-.92.87-1.22-.36zm-.65 2.83a.28.28 0 11-.2-.47h.02a.28.28 0 01.18.47zm1.56 0l-.29-1.23.93-.87.29 1.23zm1.7.92a.28.28 0 11-.2-.48h.02a.27.27 0 01.19.1.27.27 0 01-.02.37zm-.3-1.9l-.3-1.23 1.23.36.3 1.23zm2.8-.46a.28.28 0 01-.39-.02.27.27 0 01.2-.46.28.28 0 01.2.08c.06.05.08.13.08.2a.27.27 0 01-.09.2zm59.03 28.58a.78.78 0 00-.72-.5.78.78 0 00-.73.47l-.01.03-1.2.02c0-.02 0-.05.02-.07a1.61 1.61 0 01.08-.27c.5-.03 1.06-.2 1.28-.55a.5.5 0 00-.14-.68.47.47 0 00-.26-.07c-.34-.02-.86.27-1.19.82a1.69 1.69 0 01-.27-.03l-.09-.03.6-1.06a.63.63 0 00.08.02.78.78 0 10.24-1.54.78.78 0 00-.76 1.24l.03.02-.63 1.12a.99.99 0 01-.1-.09 1.39 1.39 0 01-.12-.14c.29-.58.24-1.17.04-1.46a.47.47 0 00-.47-.22.49.49 0 00-.36.29c-.16.36-.01.96.23 1.4a1.72 1.72 0 01-.1.11l-.02.03-.1.08-.62-1.06a.76.76 0 00.24-.6.75.75 0 00-.3-.56.79.79 0 00-1.11.11.77.77 0 00-.17.58.78.78 0 00.3.53.77.77 0 00.49.17h.12l.67 1.12a1.63 1.63 0 01-.44.15c-.3-.41-.76-.8-1.15-.82a.5.5 0 00-.44.2.47.47 0 000 .52c.17.3.68.6 1.32.6h.02l.08.19-1.13.02a.79.79 0 00-.74-.6.79.79 0 00-.69 1.2.79.79 0 00.66.37.77.77 0 00.73-.5l1.22-.02a1.69 1.69 0 01-.03.28l-.05.19c-.5.05-1.08.26-1.28.6a.5.5 0 00.15.68c.08.05.17.07.26.07.36 0 .88-.31 1.18-.88.07 0 .13 0 .2.02l.06.01-.54.96a.78.78 0 00-.93.48.79.79 0 001.24.86.78.78 0 00.26-.47.76.76 0 00-.13-.58l-.02-.03.56-1.01a1.28 1.28 0 01.23.26c-.28.57-.25 1.15-.06 1.44a.48.48 0 00.4.23.34.34 0 00.06 0 .47.47 0 00.37-.27c.17-.36.02-.94-.2-1.39l.12-.15a1.98 1.98 0 01.18-.15l.6 1a.82.82 0 00-.06.06.78.78 0 00.25 1.18.78.78 0 00.85-1.3.79.79 0 00-.61-.16l-.62-1.02a1.5 1.5 0 01.36-.1c.28.42.73.82 1.13.85h.04a.5.5 0 00.41-.2.47.47 0 00.02-.52c-.17-.31-.69-.63-1.33-.63a1.63 1.63 0 01-.08-.22 1.08 1.08 0 01-.03-.13l1.17-.02.02.08a.79.79 0 00.73.5.79.79 0 00.73-1.05zm-1.7-1.14h.02c-.01.07-.2.2-.52.28a.95.95 0 01.5-.28zm-4.99.18a.08.08 0 01.03 0c.09 0 .3.11.51.32-.33-.09-.52-.26-.54-.32zm.13 2.86c0-.07.2-.22.54-.32-.23.24-.48.33-.54.31zm4.94-.18c-.06.03-.3-.08-.54-.33.33.08.52.26.54.32zm-1-4.62a.29.29 0 01.18-.06h.04a.3.3 0 01.26.28.3.3 0 01-.43.29.3.3 0 01-.16-.35.3.3 0 01.11-.17zm-1.65.4c.07.05.14.3.08.62a1.25 1.25 0 01-.08-.61zm-1.8-.35a.3.3 0 01.2-.1h.03a.3.3 0 01.03.58.3.3 0 01-.3-.15.3.3 0 01.03-.33zm-1.38 3.41a.3.3 0 01-.32-.07.3.3 0 01-.08-.15.3.3 0 01.57-.16.3.3 0 01-.17.38zm1.77 2.92a.3.3 0 11-.17-.54.28.28 0 01.04 0 .3.3 0 01.25.34.3.3 0 01-.11.2zm1.6-.29c-.07-.04-.13-.26-.07-.56.06.18.09.37.07.56zm1.82-.18a.29.29 0 01.08.37.3.3 0 11-.08-.37zm-.88-2.09a2.11 2.11 0 00-.47.2l-.03.01-.02.01c-.16.1-.3.22-.43.36l-.06.06-.04-.05a1.6 1.6 0 00-.41-.34l-.04-.02-.03-.02a1.42 1.42 0 00-.41-.12l-.09-.01.03-.1c.03-.17.04-.35.04-.52v-.03a.05.05 0 000-.01v-.07a1.53 1.53 0 00-.1-.38 1.42 1.42 0 00-.03-.08l.07-.02c.18-.05.34-.13.5-.22l.03-.02.05-.04h.02a2.16 2.16 0 00.37-.34l.04-.04.04.04c.12.14.27.24.43.31h.03a.26.26 0 00.05.03 1.6 1.6 0 00.38.11l.17.03a2.23 2.23 0 00-.1.6v.12a1.5 1.5 0 00.13.54l-.12.01zm2.52-.36a.3.3 0 01-.23 0 .3.3 0 01-.18-.28.3.3 0 01.55-.15.3.3 0 010 .33.3.3 0 01-.14.1zm15.87-31.22a.82.82 0 00-1.4-.1l-1.31-.4 1.23-.3a.24.24 0 00.15-.12.25.25 0 00.03-.08.24.24 0 00-.11-.25.24.24 0 00-.19-.03l-1.16.28.96-.88a.8.8 0 00.42.12.82.82 0 00.2-1.63.82.82 0 00-1.03.77.85.85 0 00.08.38l-1.02.93.36-1.22a.24.24 0 00-.26-.3.23.23 0 00-.2.17l-.35 1.15-.27-1.28a.83.83 0 00.33-1.1.83.83 0 00-.29-.31.83.83 0 00-1.14.25.82.82 0 00.63 1.26l.29 1.34-.87-.91a.25.25 0 10-.36.34l.83.87-1.24-.4a.82.82 0 00-.8-.83.83.83 0 00-.85.8.82.82 0 001.2.75.76.76 0 00.3-.26l1.3.41-1.23.3a.24.24 0 00-.18.3.24.24 0 00.24.19h.06l1.16-.28-.96.88a.77.77 0 00-.39-.12h-.04a.83.83 0 00-.84.8.82.82 0 00.8.85h.05a.83.83 0 00.74-1.17l1.02-.92-.36 1.2a.25.25 0 00.38.27.23.23 0 00.08-.13l.34-1.14.28 1.27a.83.83 0 00-.41.9.82.82 0 00.98.62.82.82 0 00-.1-1.62l-.3-1.34.87.91a.22.22 0 00.18.08.23.23 0 00.16-.07.26.26 0 00.06-.07.24.24 0 000-.19.25.25 0 00-.04-.08l-.83-.87 1.24.4a.83.83 0 001.61.26.81.81 0 00-.03-.65zm-1.6-2.83a.33.33 0 01.22-.09.35.35 0 01.26.1.35.35 0 01.09.25.34.34 0 01-.12.24.34.34 0 01-.38.07.34.34 0 01-.16-.46.33.33 0 01.09-.11zm-4.6 1.46a.32.32 0 01-.16.2.34.34 0 01-.32 0 .34.34 0 01-.17-.27.35.35 0 01.12-.3.34.34 0 01.43.01.33.33 0 01.08.1.33.33 0 01.03.26zm.56 3.11a.34.34 0 01-.38.06.33.33 0 01-.1-.08.33.33 0 01.02-.48.33.33 0 01.25-.1.34.34 0 01.2.6zm1.44-4.92a.34.34 0 01-.41-.25.34.34 0 01.13-.36.34.34 0 01.13-.06.4.4 0 01.07 0 .34.34 0 01.28.54.34.34 0 01-.2.13zm1.14 5.26a.34.34 0 01.42.3.34.34 0 01-.68.11.35.35 0 01.27-.4zm-.57-2.2a.44.44 0 01-.4-.26.44.44 0 11.84-.17.45.45 0 01-.13.31.44.44 0 01-.3.13zm3.22.6a.34.34 0 01-.33.25.32.32 0 01-.1-.02.33.33 0 01-.2-.17.31.31 0 01-.02-.26.33.33 0 01.32-.24.34.34 0 01.3.19.32.32 0 01.03.25z"></path></g></g></svg>