<svg width="24" height="24" viewBox="0 0 24 24" xmlns="http://www.w3.org/2000/svg"><g id="pause_24__Page-2" stroke="none" stroke-width="1" fill="none" fill-rule="evenodd"><g id="pause_24__pause_24"><path id="pause_24__Rectangle-737" d="M0 0h24v24H0z"></path><path d="M6.79 5H8.7c.45 0 .61.05.78.13.16.1.29.22.38.38.08.17.13.33.13.78V17.7c0 .45-.05.61-.13.78a.91.91 0 01-.38.38c-.17.08-.33.13-.78.13H6.8c-.45 0-.61-.05-.78-.13a.91.91 0 01-.38-.38c-.08-.17-.13-.33-.13-.78V6.3c0-.45.05-.61.13-.78.1-.16.22-.29.38-.38.17-.08.33-.13.78-.13zm8 0h1.92c.45 0 .61.05.78.13.16.1.29.22.38.38.08.17.13.33.13.78V17.7c0 .45-.05.61-.13.78a.91.91 0 01-.38.38c-.17.08-.33.13-.78.13H14.8c-.45 0-.61-.05-.78-.13a.91.91 0 01-.38-.38c-.08-.17-.13-.33-.13-.78V6.3c0-.45.05-.61.13-.78.1-.16.22-.29.38-.38.17-.08.33-.13.78-.13z" id="pause_24__Mask" fill="currentColor"></path></g></g></svg>